<svg viewBox="65 155 242 80" fill="none" xmlns="http://www.w3.org/2000/svg">
<path d="M69.9 181.7H78.5L80.4 167.3L91.8 167.6V181.7H104.2V193.3H91.8V212.6C91.8 214.733 92.3 216.333 93.3 217.4C94.3 218.467 95.6 219 97.2 219H104.1L104.6 230.7C102.733 231.033 100.967 231.267 99.3 231.4C97.6333 231.533 96.0333 231.6 94.5 231.6C91.7 231.6 89.2667 231.167 87.2 230.3C85.1333 229.367 83.4 228.133 82 226.6C80.6667 225.067 79.6333 223.233 78.9 221.1C78.2333 218.967 77.9 216.7 77.9 214.3V193.3H69.9V181.7ZM134.916 231H120.916V155.5H134.916V185.4C136.516 183.867 138.416 182.733 140.616 182C142.816 181.2 145.082 180.8 147.416 180.8C150.416 180.8 153.182 181.333 155.716 182.4C158.249 183.4 160.416 184.867 162.216 186.8C164.082 188.733 165.516 191.1 166.516 193.9C167.582 196.633 168.116 199.7 168.116 203.1V231H154.416V203.9C154.416 200.9 153.649 198.467 152.116 196.6C150.649 194.733 148.382 193.8 145.316 193.8C143.049 193.8 140.949 194.433 139.016 195.7C137.149 196.9 135.782 198.467 134.916 200.4V231ZM183.377 206.4C183.377 202.8 183.977 199.467 185.177 196.4C186.443 193.267 188.177 190.567 190.377 188.3C192.577 185.967 195.143 184.133 198.077 182.8C201.077 181.467 204.31 180.8 207.777 180.8C210.643 180.8 213.51 181.4 216.377 182.6C219.243 183.733 221.743 185.4 223.877 187.6L227.277 181.5H234.777V231H223.077L222.377 224.7C220.51 227.033 218.143 228.833 215.277 230.1C212.477 231.367 209.577 232 206.577 232C203.443 232 200.443 231.367 197.577 230.1C194.777 228.767 192.31 226.967 190.177 224.7C188.11 222.433 186.443 219.733 185.177 216.6C183.977 213.467 183.377 210.067 183.377 206.4ZM197.177 206.4C197.177 208.2 197.443 209.9 197.977 211.5C198.577 213.033 199.41 214.367 200.477 215.5C201.543 216.633 202.81 217.533 204.277 218.2C205.743 218.867 207.343 219.2 209.077 219.2C212.61 219.2 215.477 217.967 217.677 215.5C219.943 213.033 221.077 209.867 221.077 206C221.077 204.267 220.777 202.667 220.177 201.2C219.577 199.667 218.743 198.333 217.677 197.2C216.61 196.067 215.343 195.167 213.877 194.5C212.41 193.833 210.81 193.5 209.077 193.5C207.343 193.5 205.743 193.833 204.277 194.5C202.81 195.167 201.543 196.067 200.477 197.2C199.477 198.333 198.677 199.7 198.077 201.3C197.477 202.9 197.177 204.6 197.177 206.4ZM251.072 206.4C251.072 202.867 251.672 199.533 252.872 196.4C254.072 193.267 255.772 190.567 257.972 188.3C260.172 185.967 262.839 184.133 265.972 182.8C269.105 181.467 272.572 180.8 276.372 180.8C280.172 180.8 283.605 181.467 286.672 182.8C289.805 184.133 292.472 185.967 294.672 188.3C296.872 190.567 298.572 193.267 299.772 196.4C301.039 199.533 301.672 202.867 301.672 206.4C301.672 209.933 301.039 213.267 299.772 216.4C298.572 219.533 296.872 222.267 294.672 224.6C292.472 226.867 289.805 228.667 286.672 230C283.605 231.333 280.172 232 276.372 232C272.572 232 269.105 231.333 265.972 230C262.905 228.667 260.272 226.867 258.072 224.6C255.872 222.267 254.139 219.533 252.872 216.4C251.672 213.267 251.072 209.933 251.072 206.4ZM264.672 206.4C264.672 208.2 264.939 209.9 265.472 211.5C266.072 213.033 266.905 214.367 267.972 215.5C269.039 216.633 270.272 217.533 271.672 218.2C273.072 218.867 274.639 219.2 276.372 219.2C278.105 219.2 279.672 218.867 281.072 218.2C282.539 217.533 283.772 216.633 284.772 215.5C285.772 214.367 286.539 213.033 287.072 211.5C287.672 209.9 287.972 208.2 287.972 206.4C287.972 204.6 287.672 202.933 287.072 201.4C286.539 199.8 285.772 198.433 284.772 197.3C283.772 196.1 282.539 195.167 281.072 194.5C279.672 193.833 278.105 193.5 276.372 193.5C274.639 193.5 273.072 193.833 271.672 194.5C270.272 195.167 269.039 196.1 267.972 197.3C266.905 198.433 266.072 199.8 265.472 201.4C264.939 202.933 264.672 204.6 264.672 206.4Z" fill="#FFFFFF"/>
</svg>